<svg width="20" height="20" viewBox="0 0 20 20" fill="none" xmlns="http://www.w3.org/2000/svg">
<g id="Group">
<path id="Vector" opacity="0.16" d="M17.0002 9C17.0002 11.1217 16.1574 13.1566 14.6571 14.6569C13.1568 16.1571 11.122 17 9.00024 17C6.87851 17 4.84368 16.1571 3.34339 14.6569C1.8431 13.1566 1.00024 11.1217 1.00024 9C1.00024 6.87827 1.8431 4.84344 3.34339 3.34315C4.84368 1.84285 6.87851 1 9.00024 1C11.122 1 13.1568 1.84285 14.6571 3.34315C16.1574 4.84344 17.0002 6.87827 17.0002 9Z" fill="#FE4B2B" fill-opacity="0.33"/>
<g id="Vector_2">
<path d="M19.0002 19L14.6572 14.657L19.0002 19ZM14.6572 14.657C15.4001 13.9141 15.9894 13.0321 16.3914 12.0615C16.7935 11.0909 17.0004 10.0506 17.0004 8.99996C17.0004 7.94936 16.7935 6.90905 16.3914 5.93842C15.9894 4.96779 15.4001 4.08585 14.6572 3.34296C13.9143 2.60007 13.0324 2.01078 12.0618 1.60874C11.0911 1.20669 10.0508 0.999756 9.00021 0.999756C7.9496 0.999756 6.90929 1.20669 5.93866 1.60874C4.96803 2.01078 4.08609 2.60007 3.34321 3.34296C1.84288 4.84329 1 6.87818 1 8.99996C1 11.1217 1.84288 13.1566 3.34321 14.657C4.84354 16.1573 6.87842 17.0002 9.00021 17.0002C11.122 17.0002 13.1569 16.1573 14.6572 14.657Z" fill="#FE4B2B" fill-opacity="0.33"/>
<path d="M19.0002 19L14.6572 14.657M14.6572 14.657C15.4001 13.9141 15.9894 13.0321 16.3914 12.0615C16.7935 11.0909 17.0004 10.0506 17.0004 8.99996C17.0004 7.94936 16.7935 6.90905 16.3914 5.93842C15.9894 4.96779 15.4001 4.08585 14.6572 3.34296C13.9143 2.60007 13.0324 2.01078 12.0618 1.60874C11.0911 1.20669 10.0508 0.999756 9.00021 0.999756C7.9496 0.999756 6.90929 1.20669 5.93866 1.60874C4.96803 2.01078 4.08609 2.60007 3.34321 3.34296C1.84288 4.84329 1 6.87818 1 8.99996C1 11.1217 1.84288 13.1566 3.34321 14.657C4.84354 16.1573 6.87842 17.0002 9.00021 17.0002C11.122 17.0002 13.1569 16.1573 14.6572 14.657Z" stroke="#EB583E" stroke-width="2" stroke-linecap="round" stroke-linejoin="round"/>
</g>
</g>
</svg>
